#!OML:ASF F:\VICON\USERDATA\INSTALL\rory3\rory3.ASF
:FULLY-SPECIFIED
:DEGREES
776
root 8.24868 17.6516 0.756226 -181.492 -31.6781 173.867
lowerback 13.9433 1.92181 -2.82916
upperback 0.661867 1.92022 -0.946958
thorax -7.18944 0.963845 0.217021
lowerneck -22.0514 -3.72614 -13.548
upperneck 29.5661 -3.95732 8.45182
head 14.2862 -2.38343 4.96541
rclavicle -1.26353e-014 -2.22639e-014
rhumerus -37.9031 -17.4836 -74.7876
rradius 26.7107
rwrist 10.0562
rhand -15.7745 9.99989
rfingers 7.12502
rthumb 10.4177 -19.722
lclavicle -1.26353e-014 -2.22639e-014
lhumerus -30.2066 3.82706 78.6861
lradius 29.4141
lwrist -3.34451
lhand -21.197 25.5429
lfingers 7.12502
lthumb 5.18416 55.4595
rfemur -8.63642 -7.4877 17.8625
rtibia 49.5299
rfoot -18.7771 8.21179
rtoes -6.22503
lfemur -3.88408 -3.55143 -24.7979
ltibia 24.9259
lfoot -15.3418 -14.0619
ltoes -2.20056
777
root 8.22265 17.6496 0.781232 -181.327 -31.5665 173.753
lowerback 13.7522 1.97887 -2.74763
upperback 0.586094 2.00673 -1.09167
thorax -7.15767 1.00255 0.00449772
lowerneck -21.9189 -3.7638 -13.56
upperneck 29.5276 -4.03007 8.45139
head 14.2517 -2.41843 4.9511
rclavicle -3.57937e-014 1.51076e-014
rhumerus -37.8712 -17.3318 -75.1012
rradius 26.5643
rwrist 9.83481
rhand -15.7583 9.80615
rfingers 7.12502
rthumb 10.4333 -19.915
lclavicle -3.57937e-014 1.51076e-014
lhumerus -30.3787 4.37606 78.2103
lradius 29.173
lwrist -3.70477
lhand -21.2067 25.9553
lfingers 7.12502
lthumb 5.17481 55.8721
rfemur -7.97698 -7.1137 18.1954
rtibia 48.227
rfoot -18.5203 6.86918
rtoes -2.70719
lfemur -3.95132 -3.24395 -24.9354
ltibia 24.8266
lfoot -15.4103 -14.4693
ltoes -2.109
778
root 8.1952 17.6463 0.802917 -181.17 -31.4709 173.573
lowerback 13.5454 1.91141 -2.79083
upperback 0.586207 1.91249 -1.17468
thorax -7.03805 0.956199 -0.0338042
lowerneck -22.0626 -3.69445 -13.7173
upperneck 29.567 -3.86797 8.53228
head 14.2825 -2.35346 5.04577
rclavicle 3.35449e-014 1.03368e-014
rhumerus -37.4759 -16.7361 -75.5907
rradius 26.3168
rwrist 9.42362
rhand -15.8842 9.81272
rfingers 7.12502
rthumb 10.3119 -19.9145
lclavicle 3.35449e-014 1.03368e-014
lhumerus -30.4377 5.56815 77.6477
lradius 28.7151
lwrist -4.18711
lhand -21.278 25.9682
lfingers 7.12502
lthumb 5.10593 55.8867
rfemur -7.31569 -6.60369 18.403
rtibia 46.832
rfoot -19.2234 3.65369
rtoes -3.05222
lfemur -3.9823 -2.99855 -25.143
ltibia 24.7809
lfoot -15.4369 -14.8387
ltoes -2.01965
779
root 8.16702 17.6489 0.822025 -181.165 -31.3306 173.614
lowerback 13.3394 1.87395 -2.61545
upperback 0.609725 1.89739 -1.20422
thorax -6.89002 0.942565 -0.153772
lowerneck -22.1116 -3.65207 -13.8801
upperneck 29.6044 -3.75027 8.57559
head 14.2975 -2.31655 5.11634
rclavicle -2.83889e-014 -3.18055e-015
rhumerus -37.3568 -16.5032 -75.8575
rradius 26.4394
rwrist 9.6843
rhand -15.733 9.68172
rfingers 7.12502
rthumb 10.4577 -20.0382
lclavicle -2.83889e-014 -3.18055e-015
lhumerus -30.4572 6.71852 77.1881
lradius 28.2488
lwrist -4.73268
lhand -21.1957 25.7043
lfingers 7.12502
lthumb 5.18539 55.6209
rfemur -6.68364 -5.94398 18.7788
rtibia 45.4199
rfoot -20.137 0.130818
rtoes -4.45835
lfemur -4.0206 -2.73839 -25.154
ltibia 24.8074
lfoot -15.6299 -14.95
ltoes -2.68367
780
root 8.13925 17.6538 0.840222 -181.235 -31.1331 173.79
lowerback 13.1275 1.90801 -2.29049
upperback 0.647765 2.00051 -1.22212
thorax -6.72018 0.982545 -0.367415
lowerneck -22.007 -3.65223 -13.9787
upperneck 29.5399 -3.71346 8.54807
head 14.2435 -2.31465 5.12506
rclavicle -4.45526e-014 -1.41137e-014
rhumerus -37.4036 -16.6288 -75.9376
rradius 26.7069
rwrist 10.3552
rhand -15.3918 9.52995
rfingers 7.12502
rthumb 10.7868 -20.1731
lclavicle -4.45526e-014 -1.41137e-014
lhumerus -30.4926 7.67919 76.8119
lradius 27.9108
lwrist -5.25255
lhand -20.9041 26.1419
lfingers 7.12502
lthumb 5.46693 56.0514
rfemur -6.10831 -5.39165 19.2176
rtibia 44.0851
rfoot -20.3433 -1.84626
rtoes -4.87582
lfemur -4.09295 -2.44663 -25.0322
ltibia 24.8903
lfoot -16.016 -14.9667
ltoes -3.19127
781
root 8.11199 17.6528 0.864825 -181.246 -30.9667 173.914
lowerback 12.999 1.89945 -1.99123
upperback 0.610042 2.03855 -1.25691
thorax -6.67659 0.993331 -0.576363
lowerneck -21.9232 -3.62855 -14.0067
upperneck 29.547 -3.64367 8.42598
head 14.2168 -2.30767 5.09039
rclavicle -1.15283e-013 2.3059e-014
rhumerus -37.2708 -16.3745 -76.1613
rradius 26.6748
rwrist 10.615
rhand -15.3214 9.63598
rfingers 7.12502
rthumb 10.8548 -20.0635
lclavicle -1.15283e-013 2.3059e-014
lhumerus -30.737 8.53949 76.4351
lradius 27.7155
lwrist -5.5133
lhand -20.726 26.3996
lfingers 7.12502
lthumb 5.63893 56.3046
rfemur -5.59985 -5.10446 19.5201
rtibia 42.892
rfoot -20.0093 -2.11044
rtoes -3.60422
lfemur -4.22752 -2.20444 -24.9726
ltibia 25.0214
lfoot -16.5417 -14.8968
ltoes -4.21817
782
root 8.08079 17.6474 0.89438 -181.26 -30.7696 173.985
lowerback 12.9443 1.90847 -1.64303
upperback 0.531243 2.1008 -1.3359
thorax -6.71409 1.01392 -0.867496
lowerneck -21.9374 -3.67802 -13.9434
upperneck 29.6731 -3.68737 8.22116
head 14.2768 -2.35521 4.98908
rclavicle -2.89729e-014 3.97569e-015
rhumerus -37.1758 -15.9463 -76.4885
rradius 26.6462
rwrist 10.2457
rhand -15.6041 9.68808
rfingers 7.12502
rthumb 10.5821 -20.0255
lclavicle -2.89729e-014 3.97569e-015
lhumerus -31.0407 9.12895 76.139
lradius 27.4688
lwrist -5.3722
lhand -21.0415 26.5812
lfingers 7.12502
lthumb 5.33429 56.4941
rfemur -5.09745 -4.81949 19.6798
rtibia 41.8485
rfoot -20.0647 -2.20163
rtoes -0.990458
lfemur -4.30098 -1.86774 -24.9941
ltibia 25.1808
lfoot -17.1389 -14.6137
ltoes -7.03352
